<?xml version="1.0"?>
<!-- Generated by SVGo and Plotinum VG -->
<svg width="426.75pt" height="316.88pt" viewBox="0 0 426.75 316.88"
	xmlns="http://www.w3.org/2000/svg"
	xmlns:xlink="http://www.w3.org/1999/xlink">
<g transform="scale(1, -1) translate(0, -316.88)">
<text x="160.68" y="-305.36" transform="scale(1, -1)"
	style="font-family:Helvetica;font-weight:normal;font-style:normal;font-size:12px">GridNav Epoch Plot</text>
<text x="219.3" y="-3.8789" transform="scale(1, -1)"
	style="font-family:Helvetica;font-weight:normal;font-style:normal;font-size:12px">Epoch</text>
<text x="43.103" y="-15.599" transform="scale(1, -1)"
	style="font-family:Helvetica;font-weight:normal;font-style:normal;font-size:10px">0</text>
<text x="206.33" y="-15.599" transform="scale(1, -1)"
	style="font-family:Helvetica;font-weight:normal;font-style:normal;font-size:10px">3</text>
<text x="369.56" y="-15.599" transform="scale(1, -1)"
	style="font-family:Helvetica;font-weight:normal;font-style:normal;font-size:10px">6</text>
<path d="M45.884,25.198L45.884,33.198" style="fill:none;stroke:#000000;stroke-width:0.5" />
<path d="M209.11,25.198L209.11,33.198" style="fill:none;stroke:#000000;stroke-width:0.5" />
<path d="M372.34,25.198L372.34,33.198" style="fill:none;stroke:#000000;stroke-width:0.5" />
<path d="M100.29,29.198L100.29,33.198" style="fill:none;stroke:#000000;stroke-width:0.5" />
<path d="M154.7,29.198L154.7,33.198" style="fill:none;stroke:#000000;stroke-width:0.5" />
<path d="M263.52,29.198L263.52,33.198" style="fill:none;stroke:#000000;stroke-width:0.5" />
<path d="M317.93,29.198L317.93,33.198" style="fill:none;stroke:#000000;stroke-width:0.5" />
<path d="M426.75,29.198L426.75,33.198" style="fill:none;stroke:#000000;stroke-width:0.5" />
<path d="M45.884,33.198L426.75,33.198" style="fill:none;stroke:#000000;stroke-width:0.5" />
<g transform="rotate(90)">
<text x="150.85" y="11.52" transform="scale(1, -1)"
	style="font-family:Helvetica;font-weight:normal;font-style:normal;font-size:12px">PctErr</text>
</g>
<text x="15.398" y="-33.749" transform="scale(1, -1)"
	style="font-family:Helvetica;font-weight:normal;font-style:normal;font-size:10px">0.0</text>
<text x="15.398" y="-162.81" transform="scale(1, -1)"
	style="font-family:Helvetica;font-weight:normal;font-style:normal;font-size:10px">0.5</text>
<text x="15.398" y="-291.88" transform="scale(1, -1)"
	style="font-family:Helvetica;font-weight:normal;font-style:normal;font-size:10px">1.0</text>
<path d="M32.078,38.448L40.078,38.448" style="fill:none;stroke:#000000;stroke-width:0.5" />
<path d="M32.078,167.51L40.078,167.51" style="fill:none;stroke:#000000;stroke-width:0.5" />
<path d="M32.078,296.58L40.078,296.58" style="fill:none;stroke:#000000;stroke-width:0.5" />
<path d="M36.078,64.261L40.078,64.261" style="fill:none;stroke:#000000;stroke-width:0.5" />
<path d="M36.078,90.074L40.078,90.074" style="fill:none;stroke:#000000;stroke-width:0.5" />
<path d="M36.078,115.89L40.078,115.89" style="fill:none;stroke:#000000;stroke-width:0.5" />
<path d="M36.078,141.7L40.078,141.7" style="fill:none;stroke:#000000;stroke-width:0.5" />
<path d="M36.078,193.33L40.078,193.33" style="fill:none;stroke:#000000;stroke-width:0.5" />
<path d="M36.078,219.14L40.078,219.14" style="fill:none;stroke:#000000;stroke-width:0.5" />
<path d="M36.078,244.95L40.078,244.95" style="fill:none;stroke:#000000;stroke-width:0.5" />
<path d="M36.078,270.76L40.078,270.76" style="fill:none;stroke:#000000;stroke-width:0.5" />
<path d="M40.078,38.448L40.078,296.58" style="fill:none;stroke:#000000;stroke-width:0.5" />
<path d="M45.884,48.878L100.29,48.878L154.7,41.056L209.11,67.129L263.52,51.485L317.93,38.448L372.34,43.663L426.75,41.056" style="fill:none;stroke:#228B22" />
<path d="M45.884,286.15L100.29,286.15L154.7,293.97L209.11,267.9L263.52,283.54L317.93,296.58L372.34,291.36L426.75,293.97" style="fill:none;stroke:#800080" />
<path d="M45.884,228.75L100.29,226.67L154.7,229.82L209.11,236.82L263.52,209.75L317.93,213.54L372.34,205.41L426.75,219.68" style="fill:none;stroke:#FFA500" />
<path d="M45.884,38.998L100.29,39.613L154.7,38.883L209.11,38.914L263.52,39.085L317.93,39.253L372.34,39.855L426.75,39.164" style="fill:none;stroke:#A52A2A" />
<path d="M45.884,112.09L100.29,128.29L154.7,132.31L209.11,118.77L263.52,64.192L317.93,106.99L372.34,115.61L426.75,96.228" style="fill:none;stroke:#7FFF00" />
<path d="M45.884,232.44L100.29,234.6L154.7,237.72L209.11,240.39L263.52,221.55L317.93,222.1L372.34,224.8L426.75,224.7" style="fill:none;stroke:#00FFFF" />
<path d="M406.75,295.6L426.75,295.6" style="fill:none;stroke:#228B22" />
<text x="370.08" y="-289.96" transform="scale(1, -1)"
	style="font-family:Helvetica;font-weight:normal;font-style:normal;font-size:12px">PctErr</text>
<path d="M406.75,283.84L426.75,283.84" style="fill:none;stroke:#800080" />
<text x="366.74" y="-278.2" transform="scale(1, -1)"
	style="font-family:Helvetica;font-weight:normal;font-style:normal;font-size:12px">PctCor</text>
<path d="M406.75,272.08L426.75,272.08" style="fill:none;stroke:#FFA500" />
<text x="364.29" y="-266.44" transform="scale(1, -1)"
	style="font-family:Helvetica;font-weight:normal;font-style:normal;font-size:12px">CosDiff</text>
<path d="M406.75,260.32L426.75,260.32" style="fill:none;stroke:#A52A2A" />
<text x="326.48" y="-254.68" transform="scale(1, -1)"
	style="font-family:Helvetica;font-weight:normal;font-style:normal;font-size:12px">InputP CosDiff</text>
<path d="M406.75,248.56L426.75,248.56" style="fill:none;stroke:#7FFF00" />
<text x="324.5" y="-242.92" transform="scale(1, -1)"
	style="font-family:Helvetica;font-weight:normal;font-style:normal;font-size:12px">ColorP CosDiff</text>
<path d="M406.75,236.8L426.75,236.8" style="fill:none;stroke:#00FFFF" />
<text x="318.5" y="-231.16" transform="scale(1, -1)"
	style="font-family:Helvetica;font-weight:normal;font-style:normal;font-size:12px">DorsalP CosDiff</text>
</g>
</svg>
